# xmcd
#
# Track frame offsets: 
#        150
#        15406
#        26680
#        48922
#        69615
#        89245
#        101989
#        113535
#        128410
#        144177
#        151560
#        168064
#        179070
#        197400
#        223424
#        239968
#        253130
#        256870
#        278516
#
# Disc length: 3919 seconds
#
# Revision: 0
# Processed by: cddbd v1.5.2PL0 Copyright (c) Steve Scherf et al.
# Submitted via: ExactAudioCopyFreeDBPlugin 1.0
#
DISCID=090f4d13
DTITLE=Johnny Dowd - Pictures from life's other side
DYEAR=1900
DGENRE=
TTITLE0=pictures from life's other side
TTITLE1=welcome jesus
TTITLE2=ballad of frank and jesse james
TTITLE3=worried mind
TTITLE4=no womans flesh but hers
TTITLE5=average guy
TTITLE6=murder
TTITLE7=ft. worth texas
TTITLE8=one way
TTITLE9=idle conversation
TTITLE10=wages of sin
TTITLE11=john deere yeller
TTITLE12=thanksgivingday
TTITLE13=first there was
TTITLE14=ballad of lonnie wolf
TTITLE15=hope you don't mind
TTITLE16=blood evidence
TTITLE17=butchers son
TTITLE18=(hidden track)
EXTD=
EXTT0=
EXTT1=
EXTT2=
EXTT3=
EXTT4=
EXTT5=
EXTT6=
EXTT7=
EXTT8=
EXTT9=
EXTT10=
EXTT11=
EXTT12=
EXTT13=
EXTT14=
EXTT15=
EXTT16=
EXTT17=
EXTT18=
PLAYORDER=
